<svg width="192" height="192" viewBox="0 0 512 512" xmlns="http://www.w3.org/2000/svg" role="img" aria-label="Sudoku icon">
  <rect width="512" height="512" rx="120" fill="#0F172A"/>
  <defs>
    <clipPath id="s-clip">
      <path
        d="M 360 160
           C 255 85, 120 140, 152 230
           C 180 310, 332 230, 360 300
           C 395 385, 270 440, 152 352"
        fill="none"
        stroke="#000"
        stroke-width="120"
        stroke-linecap="round"
        stroke-linejoin="round"
      />
    </clipPath>
  </defs>
  <g clip-path="url(#s-clip)">
    <rect x="112" y="112" width="88" height="88" rx="18" fill="#3B82F6"/>
    <rect x="212" y="112" width="88" height="88" rx="18" fill="#3B82F6"/>
    <rect x="312" y="112" width="88" height="88" rx="18" fill="#3B82F6"/>
    <rect x="112" y="212" width="88" height="88" rx="18" fill="#3B82F6"/>
    <rect x="212" y="212" width="88" height="88" rx="18" fill="#3B82F6"/>
    <rect x="312" y="212" width="88" height="88" rx="18" fill="#3B82F6"/>
    <rect x="112" y="312" width="88" height="88" rx="18" fill="#3B82F6"/>
    <rect x="212" y="312" width="88" height="88" rx="18" fill="#3B82F6"/>
    <rect x="312" y="312" width="88" height="88" rx="18" fill="#3B82F6"/>
  </g>
</svg>
